<?xml version="1.0" encoding="UTF-8"?>
<svg width="32px" height="32px" viewBox="0 0 32 32" version="1.1" xmlns="http://www.w3.org/2000/svg" xmlns:xlink="http://www.w3.org/1999/xlink">
    <title>77CDE274-769B-4D10-9DD8-8E86A5C20E60</title>
    <g id="Home" stroke="none" stroke-width="1" fill="none" fill-rule="evenodd" opacity="0.5">
        <g id="Home---Nav-(unregistered-user)" transform="translate(-196.000000, -1416.000000)">
            <g id="My-Stuff" transform="translate(56.000000, 1095.000000)">
                <g id="Tiles" transform="translate(0.000000, 52.000000)">
                    <g id="Tile/2x3/Poster-(Show)">
                        <g id="Group" transform="translate(0.000000, 266.000000)">
                            <g id="Network-Logo/Adaptive/White/TLC" transform="translate(140.000000, 3.000000)">
                                <g id="TLC" transform="translate(0.000000, -0.000000)">
                                    <g id="T" transform="translate(0.000000, 0.020795)">
                                        <polygon id="Clip-3" points="1.07222458e-05 0.0234555827 10.0142667 0.0234555827 10.0142667 15.3890195 1.07222458e-05 15.3890195"></polygon>
                                        <path d="M7.9142628,5.54197856 C7.9142628,5.61011272 7.85770135,5.66573904 7.78942745,5.66573904 L6.13005269,5.66573904 C5.83950663,5.66573904 5.60474306,5.9015053 5.60474306,6.19289788 L5.60474306,11.4260213 C5.60474306,11.4947203 5.54987197,11.5499432 5.48141043,11.5499432 L4.32694622,11.5499432 C4.25848468,11.5499432 4.20339914,11.4947203 4.20339914,11.4260213 L4.20339914,6.19308617 C4.20339914,5.90169359 3.96957377,5.66611562 3.67827715,5.66611562 L1.94730459,5.66611562 C1.87996889,5.66611562 1.82378432,5.61030101 1.82378432,5.54197856 L1.82378432,4.38367087 C1.82378432,4.31612848 1.87996889,4.26085185 1.94730459,4.26085185 L7.78942745,4.26085185 C7.85786219,4.26085185 7.91460967,4.31612848 7.9142628,4.38350948 L7.9142628,5.54197856 Z M8.95523044,0.0234340638 L1.05958305,0.0234340638 C0.476775383,0.0234340638 1.07222458e-05,0.501879533 1.07222458e-05,1.08504127 L1.07222458e-05,14.3263095 C1.07222458e-05,14.9107623 0.476775383,15.3890195 1.05958305,15.3890195 L8.95523044,15.3890195 C9.53621533,15.3890195 10.0142667,14.9107623 10.0142667,14.3263095 L10.0142667,1.08504127 C10.0142667,0.501879533 9.53621533,0.0234340638 8.95523044,0.0234340638 L8.95523044,0.0234340638 Z" id="Fill-2" fill="#FFFFFF"></path>
                                    </g>
                                    <g id="L" transform="translate(10.963496, 0.020795)">
                                        <polygon id="Clip-6" points="0.00212032411 0.0234555827 10.0164031 0.0234555827 10.0164031 15.3890357 0.00212032411 15.3890357"></polygon>
                                        <path d="M7.24333543,11.4254457 C7.24333543,11.4941447 7.18975101,11.5501476 7.12035127,11.5501476 L4.50205926,11.5501476 C3.39689058,11.5501476 2.91859799,10.8397017 2.91859799,9.91659536 L2.91859799,4.38349872 C2.91859799,4.31592943 2.97424645,4.2606797 3.04249355,4.2606797 L4.19567108,4.2606797 C4.26413262,4.2606797 4.31900372,4.31611772 4.31900372,4.38349872 L4.31900372,9.47010543 C4.31900372,9.84248971 4.61906577,10.143781 4.99075242,10.143781 L7.12035127,10.143781 C7.18993865,10.143781 7.24333543,10.201075 7.24333543,10.2690209 L7.24333543,11.4254457 Z M8.95734004,0.023450203 L1.06171946,0.023450203 C0.478884985,0.023450203 0.00212032411,0.501868774 0.00212032411,1.08503051 L0.00212032411,14.3263256 C0.00212032411,14.9107516 0.478884985,15.3890357 1.06171946,15.3890357 L8.95734004,15.3890357 C9.53832493,15.3890357 10.0164031,14.9107516 10.0164031,14.3263256 L10.0164031,1.08503051 C10.0164031,0.501868774 9.53832493,0.023450203 8.95734004,0.023450203 L8.95734004,0.023450203 Z" id="Fill-5" fill="#FFFFFF"></path>
                                    </g>
                                    <g id="C" transform="translate(21.926993, 0.020795)">
                                        <polygon id="Clip-9" points="0.00630468055 0.0234555827 10.0205553 0.0234555827 10.0205553 15.3890303 0.00630468055 15.3890303"></polygon>
                                        <path d="M6.79991964,6.21622973 C6.40070362,5.85893557 5.87276704,5.6405458 5.29593702,5.6405458 C4.04859136,5.6405458 3.03606288,6.65397761 3.03606288,7.90594623 C3.03606288,9.15535949 4.04859136,10.1715887 5.29593702,10.1715887 C5.87276704,10.1715887 6.40126654,9.95241892 6.79991964,9.5944254 L6.79860616,9.59665799 C6.84752641,9.54923575 6.93032895,9.54923575 6.978311,9.59665799 L7.79478322,10.4148328 C7.83775262,10.4594307 7.83962901,10.5305506 7.8009217,10.5781611 C7.14761526,11.1956455 6.26546929,11.576449 5.29553494,11.576449 C3.27401632,11.576449 1.63530868,9.93151871 1.63530868,7.90594623 C1.63530868,5.87741491 3.27401632,4.23339913 5.29553494,4.23339913 C6.26546929,4.23339913 7.14571206,4.61347641 7.8009217,5.23284366 C7.83962901,5.28212191 7.83775262,5.35195068 7.79478322,5.39673686 L6.978311,6.21622973 C6.93032895,6.26384026 6.84752641,6.26384026 6.79860616,6.21509998 L6.79991964,6.21622973 Z M8.9615512,0.0234448232 L1.06590382,0.0234448232 C0.483069341,0.0234448232 0.00630468055,0.501890293 0.00630468055,1.08502513 L0.00630468055,14.3263202 C0.00630468055,14.9107462 0.483069341,15.3890303 1.06590382,15.3890303 L8.9615512,15.3890303 C9.54248248,15.3890303 10.0205606,14.9107462 10.0205606,14.3263202 L10.0205606,1.08502513 C10.0205606,0.501890293 9.54248248,0.0234448232 8.9615512,0.0234448232 L8.9615512,0.0234448232 Z" id="Fill-8" fill="#FFFFFF"></path>
                                    </g>
                                </g>
                            </g>
                        </g>
                    </g>
                </g>
            </g>
        </g>
    </g>
</svg>