<?xml version="1.0" encoding="UTF-8"?>
<svg width="106px" height="106px" viewBox="0 0 106 106" version="1.1" xmlns="http://www.w3.org/2000/svg" xmlns:xlink="http://www.w3.org/1999/xlink">
    <title>8F72E97C-BB38-4E53-9596-5F009214CDBD</title>
    <defs>
        <polygon id="path-1" points="0 0.223073016 43.544146 0.223073016 43.544146 43.7671958 0 43.7671958"></polygon>
    </defs>
    <g id="Symbols" stroke="none" stroke-width="1" fill="none" fill-rule="evenodd">
        <g id="Navigation/Network-Selector/Nav" transform="translate(-951.000000, 1.000000)">
            <g id="Navigation/Network-Selector/default" transform="translate(952.000000, 0.000000)">
                <circle id="Oval" stroke-opacity="0.2" stroke="#FFFFFF" cx="52" cy="52" r="52"></circle>
                <g id="Network-Logo/Centered/White/Food-Network" opacity="0.5" transform="translate(8.000000, 30.000000)" fill-rule="evenodd">
                    <g id="Group-6" transform="translate(22.000000, 0.000000)">
                        <g id="Group-5" transform="translate(0.000000, 0.009778)">
                            <mask id="mask-2" fill="white">
                                <use xlink:href="#path-1"></use>
                            </mask>
                            <g id="Clip-4"></g>
                            <path d="M34.1907704,18.2826286 C33.8837016,18.4181206 33.5000402,18.6753693 33.1580508,19.2015069 C32.8162942,19.7276444 32.5937333,20.6227767 32.4156381,21.5414222 C32.2375429,22.4600677 32.1970349,22.9952847 32.1860931,23.2259937 C32.1581566,23.8135915 32.3197228,24.2682582 32.4505587,24.4472847 C32.7185164,24.8137185 33.0837862,24.9624804 33.6020085,24.9624804 C34.2405905,24.9624804 34.6433418,24.6745016 34.9359767,24.4156233 C35.5570984,23.8655069 35.8171407,22.7699302 35.8171407,22.7699302 C35.8446116,22.6819302 35.9870878,22.246819 36.1763577,21.1084063 C36.2587704,20.6132317 36.3006751,20.3017397 36.3179026,19.857782 C36.3737757,18.4232423 35.5261354,18.1534222 34.9015217,18.1534222 C34.5793206,18.1534222 34.3008868,18.2342053 34.1907704,18.2826286 L34.1907704,18.2826286 Z M16.757691,30.2587767 C16.5411831,30.2587767 16.3984741,30.3716868 16.3293312,30.5244063 C16.2902201,30.6179937 16.2753206,30.6871365 16.2701989,30.8005122 L17.2456487,30.8005122 C17.240527,30.6871365 17.2256275,30.6179937 17.1860508,30.5244063 C17.1173735,30.3716868 16.9751302,30.2587767 16.757691,30.2587767 L16.757691,30.2587767 Z M25.3307069,18.1804275 C24.3382624,18.1804275 23.6091196,18.9114328 23.2892466,19.8808296 C22.9623894,20.8714116 22.5084212,22.9626921 22.6895429,23.8771471 C22.8264317,24.5697397 23.2897122,24.9229037 24.0435323,24.9229037 C24.7973524,24.9229037 25.3630667,24.5089778 25.7946857,23.840364 C26.226072,23.1717503 26.6725905,21.2134011 26.7331196,19.8682582 C26.7936487,18.5228825 25.9960614,18.1804275 25.3307069,18.1804275 L25.3307069,18.1804275 Z M15.6690984,18.1804275 C14.676654,18.1804275 13.9475111,18.9114328 13.6276381,19.8808296 C13.300781,20.8714116 12.8468127,22.9626921 13.0279344,23.8771471 C13.1648233,24.5697397 13.6281037,24.9229037 14.3819238,24.9229037 C15.1357439,24.9229037 15.7014582,24.5089778 16.1330772,23.840364 C16.5644635,23.1717503 17.010982,21.2134011 17.0715111,19.8682582 C17.1320402,18.5228825 16.3344529,18.1804275 15.6690984,18.1804275 L15.6690984,18.1804275 Z M34.2834265,32.3218878 L33.2981989,30.7905016 L34.214982,29.7563852 L33.4409079,29.7563852 L32.5897757,30.8054011 L32.5897757,28.8160889 L31.949564,28.8160889 L31.949564,32.3218878 L32.5897757,32.3218878 L32.5897757,31.5582899 L32.8607598,31.2533164 L33.4909608,32.3218878 L34.2834265,32.3218878 Z M30.957818,29.9677714 C30.780654,29.7906074 30.6037228,29.7263534 30.3522942,29.7263534 C30.076654,29.7263534 29.8303471,29.8546286 29.7069608,30.0029249 L29.7069608,29.7563852 L29.0818815,29.7563852 L29.0818815,32.3218878 L29.7220931,32.3218878 L29.7220931,30.7758349 C29.7220931,30.4508402 29.9388339,30.3025439 30.134855,30.3025439 C30.2931619,30.3025439 30.3758074,30.3570201 30.474982,30.4552635 L30.957818,29.9677714 Z M28.4400402,23.8236021 C28.8963365,22.8462899 29.3717228,20.5294222 29.2380931,19.1714751 C29.0406751,17.1686603 27.4471302,16.262819 25.6794476,16.262819 C24.6283365,16.262819 23.6812889,16.5230942 22.9090772,17.0185016 C21.2508127,18.0824169 20.8888021,19.2927661 20.6259661,20.2218878 C20.3631302,21.1510095 20.0341778,22.8684063 20.1307915,23.8876233 C20.234855,24.9864593 20.6850984,25.6511153 21.2352148,26.0729566 C21.7853312,26.4945651 22.4821143,26.8409778 23.7702201,26.8409778 C25.2466646,26.8409778 26.4486328,26.2193905 27.2231725,25.5137608 C27.8717651,24.9226709 28.1690561,24.4035175 28.4400402,23.8236021 L28.4400402,23.8236021 Z M27.9914265,31.0372741 C27.9914265,30.5739937 27.9327598,30.283454 27.7008868,30.042036 C27.5430455,29.8746497 27.282072,29.7263534 26.9037651,29.7263534 C26.5235958,29.7263534 26.2682095,29.8746497 26.1108339,30.042036 C25.8789608,30.283454 25.819363,30.5739937 25.819363,31.0372741 C25.819363,31.5042794 25.8789608,31.7943534 26.1108339,32.0367026 C26.2682095,32.2036233 26.5235958,32.3519196 26.9037651,32.3519196 C27.282072,32.3519196 27.5430455,32.2036233 27.7008868,32.0367026 C27.9327598,31.7943534 27.9914265,31.5042794 27.9914265,31.0372741 L27.9914265,31.0372741 Z M24.9125905,29.7563852 L24.2369926,29.7563852 L23.8237651,31.3424804 L23.2976275,29.7563852 L22.829691,29.7563852 L22.3072783,31.3424804 L21.8931196,29.7563852 L21.2128656,29.7563852 L22.0023048,32.3218878 L22.5296063,32.3218878 L23.0666857,30.7118138 L23.6028339,32.3218878 L24.1301354,32.3218878 L24.9125905,29.7563852 Z M20.1966751,29.8306497 L19.7436381,29.8306497 L19.7436381,29.0717079 L19.1038921,29.0717079 L19.1038921,29.8306497 L18.8333735,29.8306497 L18.8333735,30.317909 L19.1038921,30.317909 L19.1038921,31.5883217 C19.1038921,31.9526603 19.3252889,32.3218878 19.8465376,32.3218878 L20.1966751,32.3218878 L20.1966751,31.779454 L19.9655005,31.779454 C19.8132466,31.779454 19.7436381,31.6965757 19.7436381,31.5482794 L19.7436381,30.317909 L20.1966751,30.317909 L20.1966751,29.8306497 Z M18.7784317,23.8236021 C19.234728,22.8462899 19.7101143,20.5294222 19.5764847,19.1714751 C19.3792995,17.1686603 17.7855217,16.262819 16.0178392,16.262819 C14.966728,16.262819 14.0196804,16.5230942 13.2474688,17.0185016 C11.589437,18.0824169 11.2271937,19.2927661 10.9643577,20.2218878 C10.7017545,21.1510095 10.3728021,22.8684063 10.4691831,23.8876233 C10.5732466,24.9864593 11.0234899,25.6511153 11.5738392,26.0729566 C12.1239556,26.4945651 12.8205058,26.8409778 14.1086116,26.8409778 C15.5850561,26.8409778 16.7870243,26.2193905 17.561564,25.5137608 C18.2103894,24.9226709 18.5076804,24.4035175 18.7784317,23.8236021 L18.7784317,23.8236021 Z M17.8758497,30.9532317 C17.8758497,30.2487661 17.4717016,29.7263534 16.757691,29.7263534 C16.0939661,29.7263534 15.6399979,30.2001101 15.6399979,31.0372741 C15.6399979,32.0758138 16.2210772,32.3519196 16.8272995,32.3519196 C17.2901143,32.3519196 17.5406116,32.2085122 17.801818,31.9475386 L17.4135005,31.5683005 C17.2505376,31.7317291 17.1129503,31.8094857 16.832654,31.8094857 C16.4727386,31.8094857 16.2701989,31.5683005 16.2701989,31.2391153 L17.8758497,31.2391153 L17.8758497,30.9532317 Z M14.500654,30.681782 C14.500654,30.4012529 14.4468762,30.1605333 14.2406116,29.9533376 C14.0976698,29.8106286 13.8904741,29.7263534 13.6343894,29.7263534 C13.3983259,29.7263534 13.1624952,29.8155175 12.9941778,29.9929143 L12.9941778,29.7563852 L12.3690984,29.7563852 L12.3690984,32.3218878 L13.0088444,32.3218878 L13.0088444,30.7704804 C13.0088444,30.4212741 13.2360614,30.3025439 13.437437,30.3025439 C13.6395111,30.3025439 13.8604423,30.4212741 13.8604423,30.7704804 L13.8604423,32.3218878 L14.500654,32.3218878 L14.500654,30.681782 Z M43.544146,21.9951577 C43.544146,34.0194963 33.7964,43.7672423 21.7720614,43.7672423 C14.1288656,43.7672423 7.40687619,39.8281947 3.52207196,33.870036 C4.04471746,33.6402582 4.94078095,33.1450836 5.75769101,32.0676656 C6.23773333,31.4346709 6.56109841,30.6219513 6.77946878,29.8213376 C6.8846963,29.4351153 6.95779683,29.0507556 7.02624127,28.6924698 C7.17756402,27.9004698 7.30723598,27.2418667 7.36241058,26.9350307 C7.51792381,26.0676021 8.66588148,19.6920254 8.66588148,19.6920254 L10.0769079,19.6920254 L10.7885905,17.2983323 L9.06234709,17.2983323 C9.06234709,17.2983323 9.25138413,15.8842794 9.36382857,15.3735069 C9.55752169,14.4946709 9.85597672,13.8290836 10.4188974,13.3865228 C10.9573735,12.9630519 11.5801249,12.8780783 11.9474899,12.8780783 C12.6023683,12.8780783 12.9101354,13.0994751 12.9101354,13.0994751 L13.699109,10.5663323 C13.699109,10.5663323 13.0717016,10.3400466 12.1463048,10.3486603 C9.0846963,10.3770624 7.51699259,12.4140995 6.98224127,13.6342265 C6.89913016,13.8241947 6.62372275,14.5102688 6.49754286,15.084364 C6.30245291,15.9711153 6.08059048,17.2985651 6.08059048,17.2985651 L4.95009312,17.2985651 L4.24166984,19.6922582 L5.68412487,19.6922582 C5.68412487,19.6922582 3.96626243,29.0377185 3.92342646,29.2688931 C3.88059048,29.5003005 3.75580741,29.8928085 3.69923598,30.0464593 C3.27762751,31.1958138 2.56920423,31.5734222 2.2812254,31.7040254 C0.82224127,28.7809354 -2.32804233e-05,25.4844275 -2.32804233e-05,21.9951577 C-2.32804233e-05,9.97081905 9.74772275,0.223073016 21.7720614,0.223073016 C29.7898392,0.223073016 36.7944529,4.55788783 40.5726328,11.0109884 C39.650728,11.1949037 39.0659238,11.6353693 38.5977545,12.1410201 C38.3169926,12.4441312 38.0532254,12.817782 37.7652466,13.4905862 C37.4770349,14.1633905 37.1429608,15.5923429 37.1122307,15.7259725 C37.0815005,15.8591365 36.8575429,16.7782476 36.7893312,17.3600254 C36.1737968,16.3061206 34.7995534,16.2716656 34.608654,16.260491 C33.8264317,16.2148614 33.0798286,16.4113481 32.5483365,16.6888508 C31.6417968,17.1623746 31.0709608,17.9674116 30.6849714,18.9782476 C30.2873418,20.0202794 30.0291619,21.4001101 29.8198709,22.5599407 C29.6657545,23.4136339 29.6461989,24.2212317 29.7807598,24.8956656 C30.0710667,26.3497608 31.408527,26.8491259 32.5010772,26.8868402 C33.5938603,26.9245545 34.2021778,26.6163217 34.5923577,26.3588402 C34.9823048,26.1015915 35.5214794,25.6802159 35.8567175,25.0525757 C36.0718286,25.7582053 36.3814582,26.1469884 37.0754476,26.5299513 C37.329437,26.6700995 37.4677228,26.7376127 37.7706011,26.8058243 C38.3232783,26.9303746 38.7013524,26.8959196 38.7013524,26.8959196 L39.3902201,24.6884698 C39.1220296,24.6712423 38.8517439,24.475454 38.6966963,24.2573164 C38.3877651,23.8226709 38.5146434,22.9200889 38.5968233,22.4458667 C38.7015852,21.8396444 38.8987704,20.7172952 38.9586011,20.3774011 C39.0186646,20.0377397 39.5098815,17.1325757 39.5624952,16.8352847 C39.6153418,16.5382265 39.7992571,15.6309884 40.0008656,15.0957714 C40.2478709,14.4404275 40.5030243,14.1096127 40.7875111,13.8439831 C41.1693101,13.487327 41.5557651,13.3751153 41.7545799,13.3408931 C42.9050984,15.9936974 43.544146,18.919581 43.544146,21.9951577 L43.544146,21.9951577 Z M27.2038497,30.416618 C27.3372466,30.5493164 27.3516804,30.7704804 27.3516804,31.0372741 C27.3516804,31.3024381 27.3372466,31.5291894 27.2038497,31.6625862 C27.129818,31.7361524 27.0315746,31.7757291 26.9037651,31.7757291 C26.7754899,31.7757291 26.6819026,31.7361524 26.6078709,31.6625862 C26.4744741,31.5291894 26.4595746,31.3024381 26.4595746,31.0372741 C26.4595746,30.7704804 26.4744741,30.5493164 26.6078709,30.416618 C26.6819026,30.3430519 26.7754899,30.3025439 26.9037651,30.3025439 C27.0315746,30.3025439 27.129818,30.3430519 27.2038497,30.416618 L27.2038497,30.416618 Z" id="Fill-3" fill="#FEFEFE" mask="url(#mask-2)"></path>
                        </g>
                    </g>
                </g>
            </g>
        </g>
    </g>
</svg>