<?xml version="1.0" encoding="UTF-8"?>
<svg width="106px" height="106px" viewBox="0 0 106 106" version="1.1" xmlns="http://www.w3.org/2000/svg" xmlns:xlink="http://www.w3.org/1999/xlink">
    <title>F3E1CF71-DB51-465A-8063-F4F76545FE8C</title>
    <g id="Symbols" stroke="none" stroke-width="1" fill="none" fill-rule="evenodd">
        <g id="Navigation/Network-Selector/Nav" transform="translate(-1087.000000, 1.000000)">
            <g id="Navigation/Network-Selector/default" transform="translate(1088.000000, 0.000000)">
                <circle id="Oval" stroke-opacity="0.2" stroke="#FFFFFF" cx="52" cy="52" r="52"></circle>
                <g id="Network-Logo/Centered/White/TLC" opacity="0.5" transform="translate(8.000000, 30.000000)" fill-rule="evenodd">
                    <g id="TLC" transform="translate(7.920000, 4.576000)">
                        <g id="T" transform="translate(0.000000, 0.046894)">
                            <polygon id="Clip-3" points="2.41786643e-05 0.052892339 22.5821713 0.052892339 22.5821713 34.702239 2.41786643e-05 34.702239"></polygon>
                            <path d="M17.8466626,12.4971617 C17.8466626,12.6508042 17.7191166,12.7762415 17.5651589,12.7762415 L13.8232688,12.7762415 C13.1680875,12.7762415 12.6386956,13.3078945 12.6386956,13.9649847 L12.6386956,25.765678 C12.6386956,25.9205943 12.5149613,26.0451218 12.3605805,26.0451218 L9.75726373,26.0451218 C9.60288295,26.0451218 9.47866507,25.9205943 9.47866507,25.765678 L9.47866507,13.9654093 C9.47866507,13.308319 8.95138884,12.7770907 8.29451498,12.7770907 L4.39117186,12.7770907 C4.23932984,12.7770907 4.11263364,12.6512288 4.11263364,12.4971617 L4.11263364,9.88517782 C4.11263364,9.73286972 4.23932984,9.60822092 4.39117186,9.60822092 L17.5651589,9.60822092 C17.7194792,9.60822092 17.8474448,9.73286972 17.8466626,9.88481388 L17.8466626,12.4971617 Z M20.1940446,0.0528438139 L2.38935979,0.0528438139 C1.07512849,0.0528438139 2.41786643e-05,1.13173835 2.41786643e-05,2.44676806 L2.41786643e-05,32.3058278 C2.41786643e-05,33.6237691 1.07512849,34.702239 2.38935979,34.702239 L20.1940446,34.702239 C21.5041656,34.702239 22.5821713,33.6237691 22.5821713,32.3058278 L22.5821713,2.44676806 C22.5821713,1.13173835 21.5041656,0.0528438139 20.1940446,0.0528438139 L20.1940446,0.0528438139 Z" id="Fill-2" fill="#FFFFFF"></path>
                        </g>
                        <g id="L" transform="translate(24.722684, 0.046894)">
                            <polygon id="Clip-6" points="0.00478133087 0.052892339 22.5869889 0.052892339 22.5869889 34.7022754 0.00478133087 34.7022754"></polygon>
                            <path d="M16.3337214,25.76438 C16.3337214,25.9192963 16.2128885,26.0455828 16.0563921,26.0455828 L10.1521436,26.0455828 C7.65998825,26.0455828 6.58143848,24.4435272 6.58143848,22.3619225 L6.58143848,9.88478962 C6.58143848,9.73242086 6.70692575,9.60783272 6.86082294,9.60783272 L9.46123829,9.60783272 C9.61561907,9.60783272 9.73935338,9.73284546 9.73935338,9.88478962 L9.73935338,21.3550878 C9.73935338,22.1948143 10.4159933,22.8742261 11.2541467,22.8742261 L16.0563921,22.8742261 C16.2133117,22.8742261 16.3337214,23.0034241 16.3337214,23.1566421 L16.3337214,25.76438 Z M20.1988018,0.0528802077 L2.39417739,0.0528802077 C1.07988564,0.0528802077 0.00478133087,1.13171408 0.00478133087,2.4467438 L0.00478133087,32.3058642 C0.00478133087,33.6237448 1.07988564,34.7022754 2.39417739,34.7022754 L20.1988018,34.7022754 C21.5089227,34.7022754 22.5869889,33.6237448 22.5869889,32.3058642 L22.5869889,2.4467438 C22.5869889,1.13171408 21.5089227,0.0528802077 20.1988018,0.0528802077 L20.1988018,0.0528802077 Z" id="Fill-5" fill="#FFFFFF"></path>
                        </g>
                        <g id="C" transform="translate(49.445369, 0.046894)">
                            <polygon id="Clip-9" points="0.0142170546 0.052892339 22.5963521 0.052892339 22.5963521 34.7022633 0.0142170546 34.7022633"></polygon>
                            <path d="M15.3338188,14.017598 C14.4335867,13.2118997 13.2430897,12.7194308 11.942338,12.7194308 C9.12957351,12.7194308 6.84632179,15.0047195 6.84632179,17.8279088 C6.84632179,20.6453356 9.12957351,22.9369326 11.942338,22.9369326 C13.2430897,22.9369326 14.434856,22.4427047 15.3338188,21.6354293 L15.3308569,21.6404638 C15.4411721,21.5335266 15.6278918,21.5335266 15.7360913,21.6404638 L17.5772362,23.485448 C17.6741321,23.5860163 17.6783634,23.7463916 17.5910784,23.8537534 C16.1178724,25.2461806 14.1286333,26.1048926 11.9414313,26.1048926 C7.3829068,26.1048926 3.68762108,22.3955747 3.68762108,17.8279088 C3.68762108,13.2535706 7.3829068,9.54631504 11.9414313,9.54631504 C14.1286333,9.54631504 16.1135807,10.4033893 17.5910784,11.8000625 C17.6783634,11.9111849 17.6741321,12.0686488 17.5772362,12.1696416 L15.7360913,14.017598 C15.6278918,14.1249598 15.4411721,14.1249598 15.3308569,14.0150505 L15.3338188,14.017598 Z M20.208298,0.0528680764 L2.40361311,0.0528680764 C1.08932136,0.0528680764 0.0142170546,1.13176261 0.0142170546,2.44673167 L0.0142170546,32.3058521 C0.0142170546,33.6237327 1.08932136,34.7022633 2.40361311,34.7022633 L20.208298,34.7022633 C21.518298,34.7022633 22.5963642,33.6237327 22.5963642,32.3058521 L22.5963642,2.44673167 C22.5963642,1.13176261 21.518298,0.0528680764 20.208298,0.0528680764 L20.208298,0.0528680764 Z" id="Fill-8" fill="#FFFFFF"></path>
                        </g>
                    </g>
                </g>
            </g>
        </g>
    </g>
</svg>