<?xml version="1.0" encoding="UTF-8"?>
<svg width="106px" height="106px" viewBox="0 0 106 106" version="1.1" xmlns="http://www.w3.org/2000/svg" xmlns:xlink="http://www.w3.org/1999/xlink">
    <title>0830FE4D-7500-44BA-8F8C-2C5980CDAD75</title>
    <defs>
        <polygon id="path-1" points="3.04615385e-05 3.04615385e-05 65.9330862 3.04615385e-05 65.9330862 35.4680243 3.04615385e-05 35.4680243"></polygon>
    </defs>
    <g id="Symbols" stroke="none" stroke-width="1" fill="none" fill-rule="evenodd">
        <g id="Navigation/Network-Selector/Nav" transform="translate(-543.000000, 1.000000)">
            <g id="Navigation/Network-Selector/default" transform="translate(544.000000, 0.000000)">
                <circle id="Oval" stroke-opacity="0.2" stroke="#FFFFFF" cx="52" cy="52" r="52"></circle>
                <g id="Network-Logo/Centered/White/Animal-Planet" opacity="0.5" transform="translate(8.000000, 30.000000)" fill-rule="evenodd">
                    <g id="APL" transform="translate(11.000000, 4.224000)">
                        <mask id="mask-2" fill="white">
                            <use xlink:href="#path-1"></use>
                        </mask>
                        <g id="Clip-2"></g>
                        <path d="M51.6861535,1.08771046 L50.3284828,3.44634738 C57.4859289,4.84229815 61.6427105,7.89129508 61.6427105,11.4576305 C61.6427105,13.8351535 59.8603043,16.1175351 56.8019658,16.1175351 C52.1325166,16.1175351 48.6986889,8.77467969 48.6986889,8.77467969 C47.7218889,8.74350738 45.9722797,8.70309508 45.9722797,8.70309508 C45.9722797,8.70309508 40.966332,2.27002431 33.3476982,3.04615385e-05 L33.3476982,10.4340212 C34.019172,10.9979658 34.8838735,11.8034705 35.6970951,12.8037258 C32.2585966,10.7253351 28.6860674,9.186012 22.3823566,9.186012 C15.5255658,9.186012 7.14194123,11.9530366 2.48498123,19.5234397 L2.97429508,20.4098705 C5.099292,18.0106182 8.38050738,16.5585166 8.48651354,16.5180028 C3.91220585,20.5173997 1.288452,27.149892 3.04615385e-05,31.4655812 L4.00095046,35.4680243 C8.49423046,30.4139474 15.9930489,25.6136151 26.1294305,25.6136151 C33.7387228,25.6136151 41.4648858,28.7904489 46.8260151,34.2856089 L51.1588643,29.9480889 C47.5209443,23.7315997 43.1256489,19.3411782 42.9933443,19.2086705 C43.1817997,19.2943689 47.0784397,21.5424305 53.9149228,21.5424305 C60.2651382,21.5424305 65.9331166,18.0143751 65.9331166,12.7430058 C65.9331166,6.44721508 60.5350274,2.45644892 51.6861535,1.08771046" id="Fill-1" fill="#FFFFFF" mask="url(#mask-2)"></path>
                    </g>
                </g>
            </g>
        </g>
    </g>
</svg>