<?xml version="1.0" encoding="UTF-8"?>
<svg width="106px" height="106px" viewBox="0 0 106 106" version="1.1" xmlns="http://www.w3.org/2000/svg" xmlns:xlink="http://www.w3.org/1999/xlink">
    <title>515011F3-9504-4699-9AF3-AB4A56295CA9</title>
    <g id="Symbols" stroke="none" stroke-width="1" fill="none" fill-rule="evenodd">
        <g id="Navigation/Network-Selector/Nav" transform="translate(-1223.000000, 1.000000)">
            <g id="Navigation/Network-Selector/default" transform="translate(1224.000000, 0.000000)">
                <circle id="Oval" stroke-opacity="0.2" stroke="#FFFFFF" cx="52" cy="52" r="52"></circle>
                <g id="Network-Logo/Centered/White/Travel" opacity="0.5" transform="translate(8.000000, 30.000000)" fill="#FFFFFF" fill-rule="evenodd">
                    <g id="Travel" transform="translate(6.600000, 3.960000)">
                        <path d="M21.8394161,32.2241276 L21.1035592,32.5711338 C20.8604605,32.1354939 20.3967083,31.9103162 19.9533295,31.9103162 C19.3959982,31.9103162 18.8390122,32.1632133 18.8390122,32.673114 L18.8390122,34.4830904 C18.8390122,34.9947022 19.3959982,35.2462304 19.9533295,35.2462304 C20.4032692,35.2462304 20.867712,35.0282393 21.1035592,34.5929415 L21.8394161,34.9187304 C21.4678618,35.6681818 20.6964379,36.0350365 19.9533295,36.0350365 C18.9892223,36.0350365 18.0175182,35.5189759 18.0175182,34.4830904 L18.0175182,32.673114 C18.0175182,31.6450994 18.9892223,31.1211679 19.9747388,31.1211679 C20.710941,31.1211679 21.4751134,31.482205 21.8394161,32.2241276 Z" id="Fill-1"></path>
                        <polygon id="Fill-3" points="27.0346727 33.9803807 24.8339404 33.9803807 24.8339404 36.0350365 24.0233577 36.0350365 24.0233577 31.1211679 24.8339404 31.1211679 24.8339404 33.1821038 27.0346727 33.1821038 27.0346727 31.1211679 27.8452555 31.1211679 27.8452555 36.0350365 27.0346727 36.0350365"></polygon>
                        <path d="M32.3974465,32.5070728 L32.2598943,31.6671533 L32.172416,31.6671533 L32.0224963,32.5221657 L31.6671533,33.8510949 L32.7591241,33.8510949 L32.3974465,32.5070728 Z M31.7912485,31.1211679 L32.6280141,31.1211679 L34.3970803,36.0350365 L33.5606487,36.0350365 L33.0839762,34.7584215 L31.3282716,34.7584215 C31.1696034,35.2367596 31.0453412,35.5566984 30.886005,36.0350365 L30.0291971,36.0350365 L31.7912485,31.1211679 Z" id="Fill-5"></path>
                        <polygon id="Fill-7" points="37.3910008 33.2940998 37.3910008 36.0350365 36.5810219 36.0350365 36.5810219 31.1211679 37.4332224 31.1211679 39.1518097 34.0225973 39.6621842 35.0009051 39.7118368 34.9869492 39.5926031 33.9322329 39.5926031 31.1211679 40.4029197 31.1211679 40.4029197 36.0350365 39.4598584 36.0350365 37.7757238 33.1901285 37.3143264 32.2536883 37.2650116 32.2658997"></polygon>
                        <polygon id="Fill-9" points="43.9428972 33.2940998 43.9428972 36.0350365 43.1328467 36.0350365 43.1328467 31.1211679 43.9851225 31.1211679 45.7038618 34.0225973 46.2142814 35.0009051 46.2636006 34.9869492 46.1446941 33.9322329 46.1446941 31.1211679 46.9547445 31.1211679 46.9547445 36.0350365 46.0115999 36.0350365 44.3276543 33.1901285 43.8658782 32.2536883 43.8168968 32.2658997"></polygon>
                        <polygon id="Fill-11" points="52.4145985 31.924698 49.9519834 31.924698 49.9519834 33.1794732 52.2185661 33.1794732 52.2185661 33.9830033 49.9519834 33.9830033 49.9519834 35.2315064 52.4145985 35.2315064 52.4145985 36.0350365 49.1386861 36.0350365 49.1386861 31.1211679 52.4145985 31.1211679"></polygon>
                        <polygon id="Fill-13" points="58.420438 36.0350365 55.1445255 36.0350365 55.1445255 31.1211679 56.0043622 31.1211679 56.0043622 35.2304795 58.420438 35.2304795"></polygon>
                        <polygon id="Fill-17" points="52.9605839 27.2992701 58.420438 27.2992701 58.420438 0 52.9605839 0"></polygon>
                        <path d="M45.650593,7.64379562 C44.9536797,9.72984154 40.9065445,21.8395434 40.7920156,22.1828423 C40.7261867,22.3797344 40.5485158,22.46253 40.4027518,22.46253 C40.2569877,22.46253 40.0793168,22.3797344 40.0134879,22.1828423 C39.898959,21.8395434 35.8518239,9.72984154 35.1549105,7.64379562 L29.4832117,7.64379562 C30.1865064,9.74532365 34.310218,22.0707653 34.9117466,23.8697191 C35.6079882,25.9527359 37.6466695,27.8452555 40.4027518,27.8452555 C43.158834,27.8452555 45.1971795,25.9527359 45.8940928,23.8697191 C46.4952855,22.0707653 50.619333,9.74532365 51.3226277,7.64379562 L45.650593,7.64379562 Z" id="Fill-19"></path>
                        <polygon id="Fill-20" points="0 5.04673913 0 -4.65670369e-14 22.3854015 -4.65670369e-14 22.3854015 5.04673913 14.1969085 5.04673913 14.1969085 27.2992701 8.18984707 27.2992701 8.18984707 5.04673913"></polygon>
                        <path d="M23.407411,27.2992701 L23.407411,17.4441772 C23.407411,15.023787 25.3979965,13.0162495 27.8452555,13.0162495 L27.8452555,7.64379562 C22.4257479,7.64379562 18.0175182,12.0589685 18.0175182,17.4441772 L18.0175182,27.2992701 L23.407411,27.2992701 Z" id="Fill-21"></path>
                        <path d="M62.2423358,26.4668773 L62.2423358,0.832297967 C62.2423358,0.0591003365 63.2070206,-0.294690005 63.707817,0.294847821 L74.6024241,13.1121375 C74.8658586,13.4219577 74.8658586,13.8772176 74.6024241,14.187376 L63.707817,27.0046657 C63.2070206,27.5938653 62.2423358,27.240075 62.2423358,26.4668773" id="Fill-22"></path>
                    </g>
                </g>
            </g>
        </g>
    </g>
</svg>