<?xml version="1.0" encoding="UTF-8"?>
<svg width="106px" height="106px" viewBox="0 0 106 106" version="1.1" xmlns="http://www.w3.org/2000/svg" xmlns:xlink="http://www.w3.org/1999/xlink">
    <title>19656640-2BC1-4CCA-BC01-02D89160AE77</title>
    <g id="Symbols" stroke="none" stroke-width="1" fill="none" fill-rule="evenodd">
        <g id="Navigation/Network-Selector/Nav" transform="translate(-271.000000, 1.000000)">
            <g id="Navigation/Network-Selector/default" transform="translate(272.000000, 0.000000)">
                <circle id="Oval" stroke-opacity="0.2" stroke="#FFFFFF" cx="52" cy="52" r="52"></circle>
                <g id="Network-Logo/Centered/White/Science" opacity="0.5" transform="translate(8.000000, 30.000000)" fill="#FFFFFF" fill-rule="evenodd">
                    <g id="SCI" transform="translate(21.912000, 0.000000)">
                        <path d="M37.8425663,28.7423118 L41.2657476,28.7423118 L41.2657476,4.7126193 L37.8425663,4.7126193 L37.8425663,28.7423118 Z M35.9199576,11.7115589 L32.4498834,11.7115589 L32.4498834,10.4531029 C32.4498834,9.7777052 32.3167544,9.19250053 31.9323265,8.69706893 C31.547242,8.2020106 31.0567423,7.95401485 30.4007107,7.95401485 C29.5405544,7.95401485 28.9529864,8.21890138 28.6702222,8.74769459 C28.3870829,9.27690774 28.2295228,9.94656628 28.2295228,10.7570435 L28.2295228,23.0498409 C28.2295228,23.7479152 28.4136712,24.3330265 28.7190377,24.8058749 C29.024498,25.2786766 29.5885258,25.5150074 30.380875,25.5150074 C30.6067112,25.5150074 30.8580571,25.4760467 31.1183596,25.396912 C31.3781931,25.3182439 31.6196915,25.1889502 31.8350706,25.0084708 C32.0498401,24.8285981 32.1679164,24.5810689 32.3036244,24.2655101 C32.4394262,23.9504645 32.4498834,23.5563775 32.4498834,23.0835292 L32.4498834,21.9300106 L35.9199576,21.9300106 L35.9199576,23.3875164 C35.9199576,24.1304772 35.8336278,24.8396098 35.5510043,25.5150074 C35.267865,26.1904517 34.9051015,26.7814889 34.4077086,27.2880255 C33.9097061,27.7946087 33.3407546,28.199894 32.6736562,28.5038346 C32.0059483,28.8077285 31.2942548,28.9597922 30.525352,28.9597922 C29.8688515,28.9597922 29.2051764,28.8695058 28.5263548,28.6895864 C27.8475333,28.5096204 27.2383477,28.199894 26.6952811,27.7608738 C26.1522613,27.3218537 25.6940709,26.7424814 25.3435465,26.0215907 C24.9924594,25.3013065 24.8063415,24.3895313 24.8063415,23.2861718 L24.8063415,10.0479109 C24.8063415,9.25997031 24.954101,8.52816119 25.2255639,7.85276352 C25.4971207,7.17731919 25.8875978,6.59211453 26.3856004,6.09658961 C26.8829933,5.60167126 27.4799868,5.21332344 28.1704378,4.93149947 C28.860326,4.65028208 29.6255243,4.5093701 30.4628907,4.5093701 C31.2546303,4.5093701 31.9909426,4.65028208 32.6697172,4.93149947 C33.3485388,5.21332344 33.9369977,5.6069438 34.4350003,6.11348038 C34.9323932,6.62006363 35.2676774,7.22794486 35.5508167,7.93717073 C35.8334402,8.64634995 35.9199576,9.41781972 35.9199576,10.2504602 L35.9199576,11.7115589 Z M23.0244115,11.7115589 L19.6012301,11.7115589 L19.6012301,10.8583415 C19.6012301,10.0705875 19.4549243,9.38926405 19.0815162,8.81521103 C18.7082487,8.24111135 18.1004699,7.95401485 17.2180394,7.95401485 C16.7429206,7.95401485 16.3626661,8.04430117 16.0572058,8.22417391 C15.7517455,8.40465323 15.5192505,8.63529162 15.3495451,8.91650901 C15.1798397,9.19833298 15.0635453,9.52439024 14.9956913,9.8958473 C14.9278373,10.267351 14.8951061,10.6556988 14.8951061,11.0610308 C14.8951061,11.5337858 14.9127378,11.9337519 14.9465945,12.2598091 C14.9805918,12.586473 15.0657493,12.867737 15.2015042,13.1041145 C15.3372592,13.3405854 15.535241,13.5490138 15.7955903,13.7289332 C16.0554708,13.9094125 16.4119036,14.0892853 16.8648421,14.269298 L19.5122274,15.3161527 C20.2811771,15.6089883 20.9037272,15.9525896 21.3789398,16.34621 C21.8540586,16.7403902 22.2215582,17.202087 22.4820013,17.7308335 C22.7418818,18.2600933 22.917355,18.8679745 23.0079989,19.5544305 C23.098174,20.2414931 23.1438477,21.0235546 23.1438477,21.9015483 C23.1438477,22.9146681 23.0419963,23.8549989 22.8382936,24.7214677 C22.6346846,25.588403 22.3006196,26.3313637 21.8371302,26.9503033 C21.3730782,27.5698494 20.7563428,28.0594952 19.9873462,28.4194274 C19.2179276,28.7792662 18.2787098,28.9597922 17.1703493,28.9597922 C16.3330298,28.9597922 15.5523569,28.8130011 14.8285182,28.5207253 C14.1040229,28.2283563 13.4820356,27.8283902 12.9618058,27.3218537 C12.4410133,26.8152704 12.0231976,26.2132216 11.7176904,25.5150074 C11.4122301,24.8175398 11.2542948,24.0629141 11.2542948,23.2523902 L11.2542948,21.9300106 L14.6774761,21.9300106 L14.6774761,23.0498409 C14.6774761,23.6803987 14.8887755,24.2486193 15.262043,24.7552025 C15.6354511,25.2617391 16.2756329,25.5150074 17.1580165,25.5150074 C17.7461941,25.5150074 18.2104806,25.4306002 18.5387778,25.2617391 C18.8665122,25.0929247 19.1188429,24.8565005 19.2885014,24.5526066 C19.4582068,24.2486193 19.5669045,23.8719364 19.6124375,23.4212513 C19.6575485,22.9711262 19.6811825,22.4756479 19.6811825,21.9353298 C19.6811825,21.3052386 19.6587208,20.7870838 19.6136567,20.3818452 C19.5680299,19.9766066 19.4722747,19.6505027 19.3253592,19.4025069 C19.1779748,19.1549777 18.9744128,18.9524284 18.7145324,18.794579 C18.454183,18.6373828 18.1089575,18.4685217 17.6794186,18.2880424 L15.2017856,17.2748759 C13.7084345,16.6669947 12.7072243,15.8623033 12.198155,14.8602884 C11.6890388,13.8586935 11.4345042,12.6034104 11.4345042,11.0947656 C11.4345042,10.194562 11.5585359,9.33868505 11.8078185,8.52816119 C12.0565385,7.71763733 12.4239912,7.02002969 12.9108332,6.43431177 C13.3971594,5.84915376 14.0138948,5.38218452 14.7606172,5.03284411 C15.5072928,4.68406363 16.3780939,4.5093701 17.3740052,4.5093701 C18.2335988,4.5093701 19.0200396,4.66717285 19.7328585,4.98221845 C20.4456305,5.29773065 21.0564573,5.71402757 21.5655735,6.2317158 C22.0746428,6.74991729 22.4053315,7.3292895 22.6768413,7.97090562 C22.9483043,8.61261506 23.0244115,9.27112195 23.0244115,9.94656628 L23.0244115,11.7115589 Z M10.3144674,0 L0,10.3344008 L0,44 L34.0725182,44 L44.22,33.9740657 L44.22,0 L10.3144674,0 Z" id="Fill-1"></path>
                    </g>
                </g>
            </g>
        </g>
    </g>
</svg>