<?xml version="1.0" encoding="UTF-8"?>
<svg width="106px" height="106px" viewBox="0 0 106 106" version="1.1" xmlns="http://www.w3.org/2000/svg" xmlns:xlink="http://www.w3.org/1999/xlink">
    <title>0E2D6D38-746F-4D3E-808D-6D421F3BBD8A</title>
    <g id="Symbols" stroke="none" stroke-width="1" fill="none" fill-rule="evenodd">
        <g id="Navigation/Network-Selector/Nav" transform="translate(-815.000000, 1.000000)">
            <g id="Navigation/Network-Selector/default" transform="translate(816.000000, 0.000000)">
                <circle id="Oval" stroke-opacity="0.2" stroke="#FFFFFF" cx="52" cy="52" r="52"></circle>
                <g id="Network-Logo/Centered/White/DIY" opacity="0.5" transform="translate(8.000000, 30.000000)" fill="#FFFFFF" fill-rule="evenodd">
                    <g id="Logo/DIY-GO/Stacked/Black" transform="translate(13.200000, 2.992000)">
                        <g id="DIY-GO-Stacked-Black">
                            <g id="DIY-Logo">
                                <path d="M17.3944217,32.8402032 C18.3849622,32.8402032 19.5060566,32.978658 20.2643324,33.7576569 C20.9497409,34.453735 20.9770662,35.196979 20.995283,35.7439519 L16.1245565,35.7439519 C16.3029297,36.6089145 17.0695548,36.7937745 17.487024,36.7937745 C17.7458549,36.7937745 17.9773605,36.7291115 18.1344807,36.6629271 C18.3675044,36.5716381 18.4593476,36.4788277 18.5891426,36.3479803 L20.8662471,36.4590485 C20.7463196,36.6827063 20.5057055,37.1452369 19.8301645,37.5172393 C18.9777684,37.9812913 17.8103728,38.0375862 17.3853133,38.0375862 C16.7363385,38.0375862 16.0881228,37.9531439 15.4854491,37.711989 C14.5419688,37.3308577 13.8656688,36.5716381 13.8656688,35.4198762 C13.8656688,34.7694425 14.0971744,34.2605068 14.3575234,33.9349096 C15.1909436,32.8675899 16.6627122,32.8402032 17.3944217,32.8402032 Z M38.2057147,32.8499407 C41.0862519,32.8119036 41.9925395,34.1850412 41.9925395,35.4296136 C41.9925395,37.164864 40.391735,38.0275444 38.3620759,38.0275444 C36.6405849,38.0275444 34.7331303,37.3771108 34.7331303,35.4478714 C34.7331303,33.6000314 36.4644888,32.8773273 38.2057147,32.8499407 Z M11.0780375,32.886228 C11.7368797,32.886228 12.1801561,32.9874066 12.5877578,33.2308437 C13.3000645,33.6466363 13.385278,34.2529855 13.3931473,35.1294991 L13.3938528,37.8979902 L11.198724,37.8979902 L11.198724,35.6515218 C11.198724,35.3274461 11.1805072,35.1509542 11.1433145,35.0201067 C10.9861943,34.4533546 10.4950987,34.2867523 10.086738,34.2867523 C9.81955773,34.2867523 9.56072685,34.3521761 9.35578744,34.5187784 C8.99850975,34.8125005 8.95417452,35.187561 8.94888026,35.5774104 L8.94818574,37.8979902 L6.74470762,37.8979902 L6.74470762,32.9790384 L8.94818574,32.9790384 L8.94818574,33.5998031 C9.4855824,33.2103037 10.0700392,32.886228 11.0780375,32.886228 Z M23.875972,31.5226757 L23.875972,33.1833735 L24.6721995,33.1833735 L24.6721995,34.4538111 L23.8850804,34.4538111 L23.8850804,36.0696251 C23.9032972,36.5062905 24.1173451,36.5062905 24.682067,36.5062905 L24.682067,37.8976859 L23.2839248,37.8976859 C22.5711911,37.8801889 22.1909147,37.8330229 21.9039995,37.5545917 C21.6899517,37.2852893 21.7005782,37.0350055 21.6899517,36.783961 L21.7005782,36.4499956 L21.7279034,34.4538111 L21.043254,34.4538111 L21.043254,33.1833735 L21.7468793,33.1833735 L21.7650961,31.5226757 L23.875972,31.5226757 Z M27.3766406,32.9788102 L27.710616,35.0951919 C27.7834833,35.550115 27.8024592,35.6604225 27.8495193,36.0788301 C27.9413625,35.5592439 27.9777962,35.4192676 28.2009525,34.8540369 L28.9888306,32.9788102 L31.1915497,32.9788102 L31.8769582,34.8639266 C32.0621627,35.4010098 32.0993554,35.5394646 32.1646324,36.1062167 C32.2382587,35.6520543 32.2572346,35.5394646 32.3498369,35.0951919 L32.7566795,32.9788102 L35.054278,32.9788102 L33.2842087,37.897762 L31.1270317,37.897762 L30.3399126,35.7075884 C30.1827924,35.2716838 30.1448407,35.150726 30.04313,34.7429687 C29.9224435,35.1872415 29.8860098,35.2899416 29.7190221,35.7167173 L28.8210839,37.897762 L26.6274733,37.897762 L24.987958,32.9788102 L27.3766406,32.9788102 Z M46.3232886,32.886228 L46.3232886,34.825357 C46.1563009,34.80786 45.9900723,34.7896022 45.8041088,34.7896022 C45.220411,34.7896022 44.9896644,34.9196889 44.850761,35.0497756 C44.6374722,35.2437646 44.6283638,35.4757906 44.6192554,35.6971663 L44.6192554,37.8979902 L42.4423435,37.8979902 L42.4423435,32.9790384 L44.6283638,32.9790384 L44.6283638,33.7580373 C44.7961105,33.4986246 45.0268571,33.2856171 45.3046639,33.1365118 C45.7130246,32.9136147 46.0447228,32.8945962 46.3232886,32.886228 Z M48.8410831,31.3456513 L48.8410831,34.5567393 L50.5268994,32.9880912 L53.2768826,32.9880912 L51.2031994,34.7895261 L53.350509,37.8979141 L50.9352602,37.8979141 L49.7306719,36.0789822 L48.8517095,36.8389626 L48.8517095,37.8979141 L46.703641,37.8979141 L46.6846651,31.3456513 L48.8410831,31.3456513 Z M38.2694736,34.138636 C37.2895596,34.165262 36.992018,34.8636223 36.992018,35.4090736 C36.992018,36.404123 37.7616793,36.700812 38.409136,36.700812 C38.8539304,36.700812 39.7412422,36.4786756 39.7412422,35.4090736 C39.7412422,34.6042096 39.1863877,34.1104886 38.2694736,34.138636 Z M17.4505903,34.092383 C16.5238088,34.092383 16.2923032,34.6675032 16.1997009,34.8911611 L18.6992026,34.8911611 C18.6255762,34.7055403 18.5785161,34.5655639 18.3477695,34.371575 C18.0509869,34.1296593 17.6805779,34.092383 17.4505903,34.092383 Z M27.1400495,7.20208789 L27.1400495,29.6545999 L18.2327757,29.6545999 L18.2327757,28.0037918 C17.4744999,28.479255 16.7921276,28.8923374 15.274817,29.3373709 C13.8356869,29.7816437 12.2811836,30.0357312 10.6522948,30.0357312 C4.3211853,30.0357312 0,26.4473156 0,21.3024237 C0,16.6018046 3.75190918,12.2830775 10.765391,12.2830775 C14.8201551,12.2830775 16.8300793,13.5854662 18.2327757,14.5059629 L18.2327757,14.5059629 L18.2327757,7.20208789 L27.1400495,7.20208789 Z M44.1229984,8.95650895 L45.9067303,13.0614678 C47.0832343,15.8275223 47.3101857,16.5258826 47.8802209,19.2036912 C48.3728345,17.0211251 48.5633522,16.4094892 49.4362423,14.168346 L49.4362423,14.168346 L51.7118287,8.95650895 L61.5390527,8.95650895 L52.0162017,24.9685871 C51.0294564,26.5402781 50.0799038,28.024484 47.8802209,28.9852999 C46.2870067,29.6547521 45.1105028,29.7133291 42.0371707,29.742998 L42.0371707,29.742998 L37.3326728,29.742998 L37.3326728,25.3755835 L41.4678946,25.3755835 C42.3779774,25.3755835 43.2888192,25.2006131 43.2888192,24.4733446 C43.2888192,24.1530726 43.0611087,23.8038925 42.9093017,23.5125287 L42.9093017,23.5125287 L34.372437,8.95650895 L44.1229984,8.95650895 Z M35.850126,12.9321418 L35.850126,29.6349728 L28.4616809,29.6349728 L28.4616809,12.9321418 L35.850126,12.9321418 Z M13.6079765,17.3640671 C10.765391,17.3640671 8.90727376,18.7623092 8.90727376,21.1434288 C8.90727376,23.8432989 11.1821012,25.0817853 13.532073,25.0817853 C16.3746584,25.0817853 18.2327757,23.3663142 18.2327757,21.1434288 C18.2327757,19.2073428 16.8300793,17.3640671 13.6079765,17.3640671 Z M35.325557,0 L38.0823715,7.58915295 L30.5109991,10.350643 L27.7534255,2.76225084 L35.325557,0 Z" id="Combined-Shape"></path>
                            </g>
                        </g>
                    </g>
                </g>
            </g>
        </g>
    </g>
</svg>