<?xml version="1.0" encoding="UTF-8"?>
<svg width="106px" height="106px" viewBox="0 0 106 106" version="1.1" xmlns="http://www.w3.org/2000/svg" xmlns:xlink="http://www.w3.org/1999/xlink">
    <title>0151AAF1-EF91-4603-85CD-03DF7AEA9163</title>
    <g id="Symbols" stroke="none" stroke-width="1" fill="none" fill-rule="evenodd">
        <g id="Navigation/Network-Selector/Nav" transform="translate(-679.000000, 1.000000)">
            <g id="Navigation/Network-Selector/default" transform="translate(680.000000, 0.000000)">
                <circle id="Oval" stroke-opacity="0.2" stroke="#FFFFFF" cx="52" cy="52" r="52"></circle>
                <g id="Network-Logo/Centered/White/HGTV" opacity="0.5" transform="translate(8.000000, 30.000000)" fill-rule="evenodd">
                    <g id="HGTV-GO-Stacked-Black" transform="translate(6.600000, 2.728000)">
                        <rect id="Rectangle" fill-opacity="0" fill="#D8D8D8" x="0" y="0" width="74.7971232" height="38.5492866"></rect>
                        <polyline id="Fill-1" fill="#FFFFFF" points="51.7826237 17.2410059 25.8913702 0 0 17.2410059 51.7826237 17.2410059"></polyline>
                        <polyline id="Fill-2" fill="#FFFFFF" points="0 18.1988396 6.5246862 18.1988396 6.5246862 25.2921353 12.6527881 25.2921353 12.6527881 18.1988396 19.1787495 18.1988396 19.1787495 38.3133466 12.6527881 38.3133466 12.6527881 31.0920501 6.5246862 31.0920501 6.5246862 38.3133466 0 38.3133466 0 18.1988396"></polyline>
                        <path d="M20.137687,28.3115998 L20.137687,28.2560358 C20.137687,22.4977737 24.8257802,18.1988396 31.1068963,18.1988396 C34.5160104,18.1988396 37.461502,19.3011833 39.6211748,21.1186412 L35.898253,25.4729102 C34.5916267,24.3994369 33.1427473,23.9756612 31.4946662,23.9756612 C28.9089428,23.9756612 27.221872,25.7217452 27.221872,28.3386371 L27.221872,28.3936283 C27.221872,31.1237103 29.3019113,32.8137721 31.7783455,32.8137721 C32.9147169,32.8137721 33.5403237,32.555199 34.0515609,32.2808161 L34.0515609,30.9854305 L30.6415015,30.9854305 L30.6415015,26.4921943 L40.275374,26.4921943 L40.275374,35.420124 C38.1159376,37.1289744 34.9147683,38.3133466 31.3055073,38.3133466 C25.1099321,38.3133466 20.137687,34.2908576 20.137687,28.3115998" id="Fill-3" fill="#FFFFFF"></path>
                        <polyline id="Fill-4" fill="#FFFFFF" points="67.6153637 18.1988396 63.8283356 29.5003454 60.0416549 18.1988396 40.275374 18.1988396 40.275374 23.8377703 45.4557033 23.8377703 45.4557033 38.3133466 51.9697018 38.3133466 51.9697018 23.8377703 54.9687788 23.8377703 60.6552262 38.3133466 66.890055 38.3133466 74.7971232 18.1988396 67.6153637 18.1988396"></polyline>
                    </g>
                </g>
            </g>
        </g>
    </g>
</svg>