<?xml version="1.0" encoding="UTF-8"?>
<svg width="106px" height="106px" viewBox="0 0 106 106" version="1.1" xmlns="http://www.w3.org/2000/svg" xmlns:xlink="http://www.w3.org/1999/xlink">
    <title>AC6D73FD-0E34-47BB-A26A-7D6C66D48DD5</title>
    <g id="Symbols" stroke="none" stroke-width="1" fill="none" fill-rule="evenodd">
        <g id="Navigation/Network-Selector/Nav" transform="translate(-1359.000000, 1.000000)">
            <g id="Navigation/Network-Selector/default" transform="translate(1360.000000, 0.000000)">
                <circle id="Oval" stroke-opacity="0.2" stroke="#FFFFFF" cx="52" cy="52" r="52"></circle>
                <g id="Network-Logo/Centered/White/Motor-Trend" opacity="0.5" transform="translate(8.000000, 30.000000)" fill="#FFFFFF" fill-rule="evenodd">
                    <g id="motortrend-white-logo" transform="translate(16.104000, 0.000000)">
                        <path d="M46.8992282,27.4597561 C47.0803329,27.4597561 47.1407011,27.4597561 47.3218058,27.4597561 C47.925488,27.4597561 48.1065927,27.6408537 48.1065927,28.0634146 C48.1065927,28.1237805 48.1065927,28.304878 48.0462245,28.727439 L46.4162825,39.6536585 C46.295546,40.5591463 46.2351778,40.8609756 45.3296545,40.8609756 C45.208918,40.8609756 45.0881816,40.8609756 44.9070769,40.8609756 L46.8992282,27.4597561 Z M43.2167667,24.3207317 L40.1983556,44 L44.9674451,44 C47.0803329,44 48.4084338,43.9396341 49.2535889,43.0945122 C49.9780076,42.370122 50.1591122,41.4042683 50.3402169,39.895122 L52.0908953,28.304878 C52.272,27.3993902 52.272,26.7957317 52.272,26.4335366 C52.272,24.4414634 50.8231627,24.2603659 47.8651198,24.2603659 L43.2167667,24.3207317 L43.2167667,24.3207317 L43.2167667,24.3207317 Z M32.410855,24.3207317 L29.4528121,44 L33.0145372,44 L34.4633745,34.3414634 L34.6444792,34.3414634 L35.1877932,44 L39.0513594,44 L42.0094023,24.3207317 L38.4476772,24.3207317 L36.9384716,34.4018293 L36.757367,34.4018293 L36.3347894,24.3207317 L32.410855,24.3207317 Z M25.0459319,24.3207317 L22.0275208,44 L28.6680252,44 L29.0906028,40.8006098 L26.6155057,40.8006098 L27.521029,34.7640244 L29.9961261,34.7640244 L30.4790719,31.5646341 L28.0039748,31.5646341 L28.607657,27.4597561 L31.0827541,27.4597561 L31.5656999,24.2603659 L25.0459319,24.3207317 L25.0459319,24.3207317 Z M18.1639546,27.4597561 L18.5261639,27.4597561 C19.1298462,27.4597561 19.371319,27.520122 19.371319,28.0030488 C19.371319,28.0030488 19.371319,28.304878 19.3109508,28.727439 L18.9487415,31.1420732 C18.7676368,32.1079268 18.7676368,32.470122 17.8621135,32.470122 C17.741377,32.470122 17.6206406,32.470122 17.4395359,32.470122 L18.1639546,27.4597561 Z M14.4814931,24.3207317 L11.463082,43.9396341 L15.6284893,43.9396341 L16.8358537,36.152439 L17.1376948,36.152439 C17.741377,36.152439 18.0432182,36.3335366 18.0432182,36.7560976 C18.0432182,36.9371951 18.0432182,37.0579268 18.0432182,37.1786585 L17.0169584,43.9396341 L21.1823657,43.9396341 L22.1482573,37.5408537 C22.2086255,37.1182927 22.2086255,36.6957317 22.2086255,36.3335366 C22.2086255,35.2469512 21.7860479,34.6432927 20.6994199,34.2810976 C22.631203,33.6170732 22.9330441,32.470122 23.2348852,30.2969512 L23.5367264,28.2445122 C23.6574628,27.4597561 23.717831,26.8560976 23.717831,26.3731707 C23.717831,24.4414634 22.3293619,24.2 19.3109508,24.2 L14.4814931,24.3207317 L14.4814931,24.3207317 L14.4814931,24.3207317 Z M5.18478689,24.3207317 L4.70184111,27.5804878 L6.8750971,27.5804878 L4.4,44 L8.56540731,44 L11.0405044,27.5804878 L13.2137604,27.5804878 L13.6967062,24.3207317 L5.18478689,24.3207317 Z" id="Shape" fill-rule="nonzero"></path>
                        <path d="M50.4282927,3.24 L50.7838388,3.24 C51.3764157,3.24 51.6134464,3.3 51.6134464,3.78 C51.6134464,3.78 51.6134464,4.08 51.5541888,4.5 L51.1986426,6.9 C51.0208696,7.86 51.0208696,8.22 50.1320042,8.22 C50.0134889,8.22 49.8949735,8.22 49.7172004,8.22 L50.4282927,3.24 Z M46.8135737,0.12 L43.8506893,19.68 L47.9394698,19.68 L49.1246235,11.94 L49.420912,11.94 C50.0134889,11.94 50.3097773,12.12 50.3097773,12.54 C50.3097773,12.72 50.3097773,12.84 50.3097773,12.96 L49.3023966,19.68 L53.3911771,19.68 L54.3393001,13.32 C54.3985578,12.9 54.3985578,12.48 54.3985578,12.12 C54.3985578,11.04 53.983754,10.44 52.9171156,10.08 C54.8133616,9.42 55.1096501,8.28 55.4059385,6.12 L55.7022269,4.08 C55.8207423,3.3 55.88,2.7 55.88,2.22 C55.88,0.3 54.5170732,0.06 51.5541888,0.06 L46.8135737,0.12 L46.8135737,0.12 L46.8135737,0.12 Z M40.8878049,4.14 L39.1693319,15.6 C39.1100742,16.26 38.9323012,16.56 38.398982,16.56 C37.9841782,16.56 37.8656628,16.38 37.8656628,16.02 C37.8656628,15.9 37.8656628,15.78 37.8656628,15.6 L39.5841357,4.14 C39.6433934,3.54 39.7619088,3.18 40.295228,3.18 C40.7100318,3.18 40.8878049,3.36 40.8878049,3.72 C40.8878049,3.78 40.8878049,3.9 40.8878049,4.14 M44.9765854,4.02 C45.0951007,3.18 45.1543584,2.58 45.1543584,2.1 C45.1543584,0.12 43.7321739,0 40.8878049,0 C38.7545281,0 37.3916013,0 36.6212513,0.9 C35.9694168,1.62 35.7916437,2.64 35.5546129,4.08 L33.7768823,15.72 C33.5991092,16.62 33.5991092,17.34 33.5991092,17.88 C33.5991092,19.62 35.0805514,19.8 37.8656628,19.8 C39.9989396,19.8 41.3026087,19.74 42.0729586,18.9 C42.8433086,18.18 42.961824,17.1 43.139597,15.66 L44.9765854,4.02 Z M27.1400212,0.12 L26.6659597,3.3 L28.7992365,3.3 L26.3696713,19.62 L30.4584517,19.62 L32.888017,3.3 L34.9620361,3.3 L35.4360976,0.06 L27.1400212,0.12 Z M21.8068293,4.14 L20.0883563,15.6 C20.0290986,16.26 19.8513256,16.56 19.3180064,16.56 C18.9032025,16.56 18.7846872,16.38 18.7846872,16.02 C18.7846872,15.9 18.7846872,15.78 18.7846872,15.6 L20.5031601,4.14 C20.5624178,3.54 20.6809332,3.18 21.2142524,3.18 C21.6290562,3.18 21.8068293,3.36 21.8068293,3.72 C21.866087,3.78 21.866087,3.9 21.8068293,4.14 M25.8956098,4.02 C26.0141251,3.18 26.0733828,2.58 26.0733828,2.1 C26.0733828,0.12 24.6511983,0 21.8068293,0 C19.6735525,0 18.3106257,0 17.5402757,0.9 C16.8884411,1.62 16.7106681,2.64 16.4736373,4.08 L14.7551644,15.72 C14.5773913,16.62 14.5773913,17.34 14.5773913,17.88 C14.5773913,19.62 16.0588335,19.8 18.8439449,19.8 C20.9772216,19.8 22.2808908,19.74 23.0512407,18.9 C23.8215907,18.18 23.940106,17.1 24.1178791,15.66 L25.8956098,4.02 Z M2.90362672,0.12 L0,19.62 L3.67397667,19.62 L5.33319194,8.34 L5.51096501,8.34 L5.33319194,19.62 L7.58498409,19.62 L10.7256416,8.34 L10.9034146,8.34 L9.24419936,19.62 L12.918176,19.62 L15.8810604,0.06 L10.9034146,0.06 L8.0590456,9.96 L7.88127253,9.96 L7.99978791,0.06 L2.90362672,0.12 L2.90362672,0.12 Z" id="Shape" fill-rule="nonzero"></path>
                    </g>
                </g>
            </g>
        </g>
    </g>
</svg>