<?xml version="1.0" encoding="UTF-8"?>
<svg width="32px" height="32px" viewBox="0 0 32 32" version="1.1" xmlns="http://www.w3.org/2000/svg" xmlns:xlink="http://www.w3.org/1999/xlink">
    <title>5F6DBD36-7904-4068-9B2F-D535F1F1F048</title>
    <defs>
        <path d="M14.283112,13.015527 L10.9383307,9.6702968 C12.6849817,7.3017434 12.4799244,3.90296798 10.3530725,1.77626548 C9.20723477,0.630876373 7.68418742,0 6.06436981,0 C4.44440262,0 2.92150484,0.630876373 1.77641494,1.77626548 C0.630876334,2.92195373 0,4.44470203 0,6.06437018 C0,7.68418789 0.630876334,9.20708577 1.77641494,10.3529236 C2.92165441,11.4984623 4.44455219,12.1293386 6.06466894,12.1293386 C7.37577893,12.1293386 8.63229673,11.7109979 9.67149274,10.9393784 L13.0155262,14.2828137 C13.1848368,14.4522739 13.4099361,14.5454545 13.6492443,14.5454545 C13.8893004,14.5454545 14.1148484,14.4516756 14.2822146,14.2835616 C14.4518243,14.1144006 14.5453041,13.8893012 14.5454538,13.6496939 C14.5456032,13.4100865 14.4524226,13.1848376 14.283112,13.015527 Z M6.09115494,1.46417847 C7.32749739,1.46417847 8.48993158,1.94559865 9.36451258,2.81996531 C10.2373107,3.69238748 10.7180385,4.85453678 10.7180385,6.09219662 C10.7180385,7.32985646 10.2373107,8.4921678 9.3643505,9.36475202 C8.49009366,10.2389566 7.32765947,10.7203768 6.09115494,10.7203768 C4.85481249,10.7203768 3.69237829,10.2389566 2.81779729,9.36475202 C1.94337837,8.49087148 1.46184017,7.32872218 1.46184017,6.09219662 C1.46184017,4.85615718 1.94337837,3.69400788 2.81779729,2.81996531 C3.69254037,1.94576069 4.85497457,1.46417847 6.09115494,1.46417847 Z" id="path-1"></path>
    </defs>
    <g id="Home" stroke="none" stroke-width="1" fill="none" fill-rule="evenodd">
        <g id="Home---Nav-(unregistered-user)" transform="translate(-617.000000, -23.000000)">
            <g id="Navigation/Global/Unregistered" transform="translate(56.000000, 18.000000)">
                <g id="Icon-Container/sm-(32x32)" transform="translate(560.000000, 5.000000)">
                    <g id="Icon/Nav/Search" transform="translate(0.800000, 0.200000)">
                        <g id="Search" transform="translate(8.727273, 8.727273)">
                            <mask id="mask-2" fill="white">
                                <use xlink:href="#path-1"></use>
                            </mask>
                            <use id="Magnifying-Glass" fill="#FFFFFF" fill-rule="nonzero" xlink:href="#path-1"></use>
                            <g id="Color/Neutral-10-(FFFFFF)" mask="url(#mask-2)" fill="#FFFFFF">
                                <g transform="translate(-7.272727, -7.272727)" id="Rectangle">
                                    <rect x="0" y="0" width="29.0909091" height="29.0909091"></rect>
                                </g>
                            </g>
                        </g>
                    </g>
                </g>
            </g>
        </g>
    </g>
</svg>